#N canvas 349 295 450 300 10;
#X obj 115 279 dac~;
#X obj 243 1 netreceive 50125 1;
#X obj 167 27 unpack f f f f;
#X obj 52 174 osc~ 440;
#X obj 61 147 mtof;
#X obj 176 259 *~ 0.5;
#X obj 107 236 *~ 0;
#X obj 68 114 / 15;
#X obj 80 66 + 1500;
#X obj 144 165 dbtorms;
#X obj 158 97 + 440;
#X obj 91 39 int;
#X obj 164 132 / 8;
#X obj 224 203 osc~ 440;
#X obj 228 161 mtof;
#X obj 260 227 *~ 0;
#X obj 251 130 / 15;
#X obj 252 95 + 1500;
#X obj 326 160 dbtorms;
#X obj 338 74 + 440;
#X obj 263 68 int;
#X obj 344 122 / 8;
#X connect 1 0 2 0;
#X connect 2 0 11 0;
#X connect 2 1 10 0;
#X connect 2 2 20 0;
#X connect 2 3 19 0;
#X connect 3 0 6 0;
#X connect 4 0 3 0;
#X connect 5 0 0 0;
#X connect 6 0 5 0;
#X connect 7 0 4 0;
#X connect 8 0 7 0;
#X connect 9 0 6 1;
#X connect 10 0 12 0;
#X connect 11 0 8 0;
#X connect 12 0 9 0;
#X connect 13 0 15 0;
#X connect 14 0 13 0;
#X connect 15 0 5 0;
#X connect 16 0 14 0;
#X connect 17 0 16 0;
#X connect 18 0 15 1;
#X connect 19 0 21 0;
#X connect 20 0 17 0;
#X connect 21 0 18 0;
